<svg id="Layer_1" data-name="Layer 1" xmlns="http://www.w3.org/2000/svg" viewBox="0 0 1920.4 582.1">
    <defs>
        <style>
            .cls-1,
            .cls-2,
            .cls-3 {
                fill: #013870;
            }

            .cls-2 {
                opacity: 0.47;
            }

            .cls-2,
            .cls-3 {
                isolation: isolate;
            }

            .cls-3 {
                opacity: 0.24;
            }
        </style>
    </defs>
    <title>background_landing</title>
    <path class="cls-1"
        d="M0,146.7c205.1,1.4,291.8,52.3,332.5,100.5,25,29.7,27.4,52.2,64,77.5,74.6,51.6,180,37.8,256,27,76.8-10.9,131.3-30.4,237-68.8,182.2-66.2,204.3-92.2,276-94,113.1-2.7,149.2,65.2,239,86.2,95.2,22.2,252.6-4.8,515.9-256.9q-.15,113.1-.2,226.1-.15,107.25-.2,214.5L0,528.6Q2.66,341.35.3,554.2.16,143,0,131.7Z"
        transform="translate(0 -1)" />
    <path class="cls-2"
        d="M0,110.6C206.3,98,292.3,150.2,332.5,201.2c27.2,34.5,26.7,60.1,64,90.1,74.6,60,180,44,256,31.4,76.8-12.7,131.3-35.4,237-80C1040.53,179,1081.56,147.23,1162,137a161.42,161.42,0,0,1,33.49-3.64c112.65-2.24,155.08,95.42,269.22,112.07,28.06,4.1,47.81,1.45,83.58-3.34,186.63-25,348.48-185,401.7-241.13q.27,98.43.3,166.9,0,130.89-.3,281.76L0,356.17Z"
        transform="translate(0 -1)" />
</svg>