<svg id="Layer_1" data-name="Layer 1" xmlns="http://www.w3.org/2000/svg" viewBox="0 0 165.2 167.4"><defs><style>.cls-1{fill:#efefef;}</style></defs><title>email</title><polygon class="cls-1" points="42.2 60.7 42.2 110.7 69.7 83.1 42.2 60.7"/><path class="cls-1" d="M85.5,93.2a2,2,0,0,1-2.5,0l-9.4-7.6L45.3,114h76.3L94.4,85.6Z" transform="translate(-0.9)"/><polygon class="cls-1" points="120.3 57.7 44.7 57.7 83.3 89.2 120.3 57.7"/><polygon class="cls-1" points="123.1 110.9 123.1 60.4 96.5 83 123.1 110.9"/><path class="cls-1" d="M83.5,0C37.9,0,.9,37.5.9,83.7s37,83.7,82.6,83.7,82.6-37.5,82.6-83.7S129.2,0,83.5,0Zm44.4,112.8a5,5,0,0,1-.9,2.9,1.79,1.79,0,0,1-.5.7,2.19,2.19,0,0,1-.5.3,5.32,5.32,0,0,1-3.3,1.2H44.3a5.12,5.12,0,0,1-5.1-5.1V58.9a5.12,5.12,0,0,1,5.1-5.1h78.5a5.12,5.12,0,0,1,5.1,5.1Z" transform="translate(-0.9)"/></svg>