<svg id="Layer_1" data-name="Layer 1" xmlns="http://www.w3.org/2000/svg" viewBox="0 0 64.23 62.46"><defs><style>.cls-1{fill:#efefef;fill-rule:evenodd;}</style></defs><title>github</title><path class="cls-1" d="M32,0A32,32,0,0,0,21.9,62.4c1.6.3,2.2-.7,2.2-1.5v-6c-8.9,1.9-10.8-3.8-10.8-3.8-1.5-3.7-3.6-4.7-3.6-4.7-2.9-2,.2-1.9.2-1.9,3.2.2,4.9,3.3,4.9,3.3,2.9,4.9,7.5,3.5,9.3,2.7a6.94,6.94,0,0,1,2-4.3c-7.1-.8-14.6-3.6-14.6-15.8a12.75,12.75,0,0,1,3.3-8.6,12,12,0,0,1,.3-8.5s2.7-.9,8.8,3.3a29.64,29.64,0,0,1,16,0c6.1-4.1,8.8-3.3,8.8-3.3a12,12,0,0,1,.3,8.5,12.09,12.09,0,0,1,3.3,8.6c0,12.3-7.5,15-14.6,15.8a7.75,7.75,0,0,1,2.2,5.9v8.8c0,.9.6,1.8,2.2,1.5A32,32,0,0,0,32,0Z" transform="translate(0.11 0)"/></svg>