<svg id="Layer_1" data-name="Layer 1" xmlns="http://www.w3.org/2000/svg" viewBox="0 0 100 100"><defs><style>.cls-1{fill:#efefef;fill-rule:evenodd;}</style></defs><title>linkedin</title><path class="cls-1" d="M50,0A50,50,0,1,1,0,50,50,50,0,0,1,50,0ZM44.53,41.67H53.2v4.44h.13c1.21-2.17,4.16-4.44,8.56-4.44,9.15,0,10.85,5.69,10.85,13.1v15.1h-9V56.49c0-3.19-.07-7.3-4.7-7.3s-5.43,3.47-5.43,7.06V69.87h-9V41.67Zm-6.26-7.84a4.71,4.71,0,1,1-4.72-4.7h0a4.69,4.69,0,0,1,4.7,4.7Zm-9.41,7.84h9.41v28.2H28.86Z"/></svg>