<?xml version="1.0" encoding="utf-8"?>
<!-- Generator: Adobe Illustrator 24.0.1, SVG Export Plug-In . SVG Version: 6.00 Build 0)  -->
<svg version="1.1" id="Layer_1" xmlns="http://www.w3.org/2000/svg" xmlns:xlink="http://www.w3.org/1999/xlink" x="0px" y="0px"
	 viewBox="0 0 575 575" style="enable-background:new 0 0 575 575;" xml:space="preserve">
<style type="text/css">
	.st0{fill:#27AAE1;}
	.st1{opacity:0.26;fill:#457BBF;enable-background:new    ;}
	.st2{fill:#FFFFFF;}
	.st3{fill:none;stroke:#FFFFFF;stroke-miterlimit:10;}
</style>
<g id="Gradient">
	<path class="st0" d="M479.6,226.2L233.3,475c-8.6,8.6-22.5,8.7-31.1,0.1c0,0-0.1-0.1-0.1-0.1L101.9,373.8c-8.6-8.7-8.6-22.8,0-31.6
		L348.2,93.5L479.6,226.2z"/>
	<path class="st0" d="M463.2,107l-115-13.5l131.4,132.7L466.3,110C466.1,108.4,464.8,107.2,463.2,107z"/>
	<polygon class="st1" points="95.4,357.4 95.8,353.5 97.6,348.4 99.1,345.7 348.2,93.5 459.9,106.6 462.7,107.5 464.4,108.8 
		465.6,110 466.7,113.4 467.1,116.9 479.6,226.2 	"/>
	<ellipse transform="matrix(0.75 -0.6614 0.6614 0.75 -20.9682 305.4038)" class="st2" cx="393.5" cy="180.4" rx="29" ry="31.4"/>
	<line class="st3" x1="222.1" y1="425.8" x2="350.9" y2="295.7"/>
	<line class="st3" x1="187.5" y1="390.9" x2="316.3" y2="260.8"/>
	<line class="st3" x1="152.9" y1="356" x2="281.7" y2="225.8"/>
</g>
</svg>
